# xmcd
#
# Track frame offsets:
#	150
#	18825
#	44155
#	69575
#
# Disc length: 1165 seconds
# Revision: 0
# Processed by: cddbd v1.5.2PL0 Copyright (c) Steve Scherf et al.
# Submitted via: dBpowerAMP V12.0
#
DISCID=31048b04
DTITLE=En Vogue - Runaway Love [CD Single)
DYEAR=1993
DGENRE=R&B
TTITLE0=Runaway Love (Edit)
TTITLE1=Runaway Love (Extended Version)
TTITLE2=What is Love (Club Remix)
TTITLE3=Desire (Dancehall Remix)
EXTD=
EXTT0=
EXTT1=
EXTT2=
EXTT3=
PLAYORDER=
